<?xml version="1.0" encoding="utf-8"?>
<svg version="1.1" id="Layer_1" x="0px" y="0px" viewBox="0 0 299.687 299.687" style="enable-background:new 0 0 299.687 299.687;" xmlns="http://www.w3.org/2000/svg">
  <g>
    <g>
      <g>
        <path d="M187.464,65.605H37.732v84.128h149.732V65.605z M178.314,140.582H46.882V74.755h131.432V140.582z" style="fill: rgb(3, 127, 255);"/>
        <path d="M212.543,0H70.048v60.808h9.15V9.15h126.746v51.547h46.861v229.84H79.198V154.529h-9.15v145.157h191.908V54.353 L212.543,0z M215.094,51.547V16.408l31.944,35.138H215.094z" style="fill: rgb(3, 127, 255);"/>
        <path d="M155.528,195.079c-1.997-0.985-4.173-1.479-6.528-1.479h-21.713v51.216h9.955v-17.168h12.118 c2.356,0,4.52-0.48,6.493-1.443c1.971-0.961,3.654-2.236,5.049-3.823c1.394-1.587,2.477-3.401,3.246-5.446 c0.769-2.044,1.155-4.148,1.155-6.312c0-2.067-0.409-4.123-1.227-6.168c-0.818-2.044-1.947-3.87-3.39-5.482 C159.243,197.364,157.523,196.066,155.528,195.079z M153.364,216.684c-1.227,1.491-2.754,2.236-4.58,2.236h-11.542v-16.591 h11.109c0.866,0,1.718,0.181,2.561,0.541c0.841,0.36,1.574,0.902,2.2,1.623c0.624,0.722,1.13,1.599,1.515,2.633 c0.384,1.035,0.577,2.2,0.577,3.498C155.204,213.174,154.59,215.194,153.364,216.684z" style="fill: rgb(3, 127, 255);"/>
        <path d="M180.449,214.159c1.106-0.673,2.476-1.01,4.112-1.01c1.778,0,3.571,0.337,5.374,1.01 c1.804,0.674,3.667,1.731,5.591,3.174l3.895-5.843c-2.068-1.827-4.34-3.149-6.817-3.967c-2.477-0.817-5.134-1.226-7.971-1.226 c-2.117,0-4.076,0.289-5.879,0.866c-1.804,0.577-3.379,1.407-4.725,2.489c-1.347,1.082-2.393,2.393-3.138,3.931 c-0.747,1.54-1.118,3.271-1.118,5.194c0,1.443,0.24,2.682,0.722,3.715c0.48,1.035,1.25,1.948,2.308,2.741 c1.057,0.794,2.453,1.504,4.183,2.128c1.731,0.625,3.823,1.275,6.276,1.948c2.933,0.818,5.05,1.54,6.348,2.164 c1.299,0.625,1.948,1.612,1.948,2.957c0,1.347-0.553,2.38-1.659,3.102c-1.107,0.722-2.622,1.082-4.544,1.082 c-2.164,0-4.341-0.42-6.528-1.262c-2.189-0.841-4.436-2.079-6.745-3.715l-3.607,6.06c2.164,1.876,4.761,3.318,7.791,4.328 c3.03,1.01,6.132,1.515,9.306,1.515c4.712,0,8.44-1.07,11.181-3.21c2.741-2.139,4.111-5.061,4.111-8.764 c0-1.587-0.278-2.945-0.83-4.076c-0.553-1.129-1.419-2.128-2.597-2.993c-1.179-0.866-2.694-1.634-4.544-2.308 c-1.852-0.673-4.076-1.346-6.673-2.02c-1.395-0.336-2.561-0.661-3.498-0.974c-0.938-0.312-1.695-0.637-2.273-0.974 c-0.576-0.336-0.999-0.722-1.262-1.154c-0.265-0.433-0.396-0.985-0.396-1.659C178.79,215.916,179.342,214.833,180.449,214.159z" style="fill: rgb(3, 127, 255);"/>
        <path d="M75.32,113.153h4.562c1.363,0,2.615-0.268,3.756-0.806c1.14-0.537,2.11-1.258,2.91-2.162 c0.8-0.905,1.422-1.94,1.867-3.107c0.445-1.166,0.669-2.366,0.669-3.598c0-1.18-0.236-2.353-0.708-3.52 c-0.471-1.166-1.121-2.202-1.946-3.107c-0.826-0.905-1.816-1.638-2.969-2.202c-1.154-0.563-2.413-0.845-3.775-0.845H67.651v27.92 h7.668V113.153z M75.319,100.49L75.319,100.49h3.854c0.471,0,0.944,0.21,1.416,0.629c0.472,0.42,0.708,1.207,0.708,2.359 c0,1.127-0.204,1.907-0.609,2.339c-0.407,0.432-0.846,0.649-1.318,0.649h-4.05V100.49z" style="fill: rgb(3, 127, 255);"/>
        <path d="M112.147,114.823c-0.328,0.223-0.911,0.334-1.75,0.334c-1.102,0-2.183-0.157-3.245-0.471 c-1.061-0.315-2.012-0.669-2.851-1.062c-0.997-0.445-1.953-0.956-2.871-1.534l-3.303,6.725c0.839,0.498,1.75,0.944,2.733,1.337 c0.983,0.393,2.006,0.734,3.067,1.022c1.062,0.289,2.13,0.511,3.205,0.669c1.075,0.157,2.123,0.236,3.146,0.236 c1.283,0,2.562-0.151,3.834-0.452c1.271-0.301,2.412-0.792,3.421-1.474c1.009-0.681,1.822-1.593,2.438-2.733 c0.616-1.14,0.924-2.549,0.924-4.227c0-1.31-0.196-2.425-0.59-3.343c-0.393-0.917-0.957-1.697-1.69-2.339 c-0.734-0.642-1.619-1.199-2.655-1.671c-1.036-0.471-2.197-0.904-3.481-1.297c-0.813-0.262-1.54-0.484-2.182-0.669 c-0.643-0.183-1.186-0.373-1.632-0.57c-0.446-0.197-0.786-0.413-1.022-0.649c-0.236-0.236-0.354-0.537-0.354-0.905 c0-0.498,0.203-0.852,0.609-1.061c0.406-0.21,0.95-0.315,1.632-0.315c0.839,0,1.697,0.138,2.576,0.413 c0.878,0.275,1.671,0.57,2.379,0.884c0.839,0.368,1.652,0.787,2.438,1.258l3.303-6.331c-0.629-0.315-1.337-0.649-2.123-1.003 c-0.786-0.354-1.632-0.681-2.536-0.983c-0.905-0.301-1.843-0.55-2.812-0.747c-0.971-0.196-1.967-0.295-2.989-0.295 c-1.39,0-2.707,0.204-3.952,0.61c-1.246,0.407-2.353,1.003-3.323,1.789c-0.971,0.787-1.737,1.77-2.3,2.949 c-0.564,1.18-0.845,2.543-0.845,4.09c0,1.022,0.138,1.927,0.413,2.713c0.275,0.787,0.701,1.488,1.278,2.104 c0.576,0.616,1.31,1.167,2.202,1.652c0.891,0.486,1.953,0.938,3.185,1.357c0.839,0.289,1.632,0.537,2.379,0.747 c0.747,0.21,1.409,0.42,1.986,0.629c0.576,0.21,1.028,0.452,1.357,0.728c0.328,0.275,0.492,0.609,0.492,1.003 C112.638,114.306,112.474,114.601,112.147,114.823z" style="fill: rgb(3, 127, 255);"/>
        <path d="M148.659,120.722c1.731-0.669,3.211-1.612,4.444-2.832c1.232-1.219,2.182-2.687,2.851-4.404 c0.669-1.717,1.002-3.637,1.002-5.761c0-1.914-0.302-3.716-0.904-5.407c-0.603-1.691-1.495-3.165-2.674-4.424 c-1.18-1.258-2.649-2.255-4.405-2.989c-1.757-0.734-3.789-1.101-6.095-1.101h-10.736v27.92h10.736 C145.002,121.725,146.929,121.391,148.659,120.722z M139.811,115.039V100.49h0.001h3.067c0.969,0,1.848,0.177,2.635,0.531 c0.786,0.354,1.448,0.845,1.986,1.474s0.95,1.39,1.239,2.281c0.289,0.892,0.432,1.875,0.432,2.949 c0,1.049-0.138,2.019-0.413,2.91c-0.275,0.891-0.682,1.665-1.219,2.32c-0.537,0.656-1.199,1.167-1.986,1.534 c-0.787,0.367-1.678,0.55-2.674,0.55H139.811z" style="fill: rgb(3, 127, 255);"/>
      </g>
    </g>
  </g>
  <g/>
  <g/>
  <g/>
  <g/>
  <g/>
  <g/>
  <g/>
  <g/>
  <g/>
  <g/>
  <g/>
  <g/>
  <g/>
  <g/>
  <g/>
</svg>